Coordinates
version=1
nRows=12
nColumns=24
inDegrees=yes

Units are S.I. units (second, meters, Newtons, ...)
Angles are in degrees.

endheader
time	pelvis_tilt	pelvis_list	pelvis_rotation	pelvis_tx	pelvis_ty	pelvis_tz	hip_flexion_r	hip_adduction_r	hip_rotation_r	knee_angle_r	ankle_angle_r	subtalar_angle_r	mtp_angle_r	hip_flexion_l	hip_adduction_l	hip_rotation_l	knee_angle_l	ankle_angle_l	subtalar_angle_l	mtp_angle_l	lumbar_extension	lumbar_bending	lumbar_rotation
      3.59000000	    -19.33780393	     -0.58551424	      8.75633375	     -1.92508509	     -0.03700118	     -0.29649926	     45.63625206	     -1.01582524	      1.16739781	     -9.60768153	     -4.54832463	     -5.20081167	     11.80250111	     -0.81135860	      3.16517371	     13.55137484	    -13.26660388	     24.31468636	     25.48709792	    -64.47084110	     14.25666421	     -2.53749629	    -10.74278775
      3.59500000	    -19.20421815	     -0.69203292	      8.75383427	     -1.91723421	     -0.03811921	     -0.29619039	     45.74782852	     -0.78860921	      1.23340681	    -10.66972163	     -5.96381633	     -6.08507786	     14.06928646	     -1.05005443	      2.95281070	     13.27071890	    -14.05222084	     23.88614634	     26.06478344	    -62.97725545	     14.17572686	     -2.41859131	    -10.79098896
      3.60000000	    -19.21853148	     -0.83642961	      8.67566182	     -1.90923018	     -0.03931486	     -0.29574896	     46.05127823	     -0.45784489	      1.44821356	    -11.90909077	     -7.22353904	     -6.94384404	     13.93420622	     -1.14359377	      2.72664296	     13.07650682	    -14.81985352	     23.57612178	     26.39463372	    -62.84191321	     14.28675190	     -2.26747614	    -10.75819867
      3.60500000	    -19.18754243	     -1.01425017	      8.57961383	     -1.90121618	     -0.04036612	     -0.29523732	     46.31617587	     -0.07875751	      1.57879111	    -13.15302987	     -8.68306340	     -7.89688657	     13.81527229	     -1.19914307	      2.43648979	     12.58538127	    -15.71341134	     23.21961750	     27.00094209	    -62.62240413	     14.34801022	     -2.07441102	    -10.69540784
      3.61000000	    -19.17459400	     -1.19216753	      8.45562551	     -1.89319220	     -0.04132420	     -0.29471989	     46.62200998	      0.31237534	      1.67134306	    -14.43607535	    -10.20735429	     -8.87688039	     13.60068770	     -1.19764775	      2.14832935	     12.02201609	    -16.65783278	     22.74092675	     27.60076892	    -62.35581173	     14.42586335	     -1.86923373	    -10.58962512
      3.61500000	    -19.18172243	     -1.37322009	      8.31335203	     -1.88515829	     -0.04218391	     -0.29420098	     46.95859787	      0.71462114	      1.76952828	    -15.74751906	    -11.68706611	     -9.89459053	     13.19415083	     -1.12364035	      1.85153596	     11.35628619	    -17.66991984	     22.13693425	     28.24232217	    -62.04167097	     14.52519666	     -1.65448694	    -10.45360560
      3.62000000	    -19.20977697	     -1.56021666	      8.15242198	     -1.87709917	     -0.04295234	     -0.29366124	     47.31537265	      1.13742166	      1.90731621	    -17.08087984	    -13.00660129	    -10.92882946	     12.51187412	     -0.96995836	      1.53330478	     10.55788779	    -18.75642314	     21.39484874	     28.95420131	    -61.66236170	     14.64879798	     -1.43001791	    -10.29163426
      3.62500000	    -19.25715699	     -1.75834141	      7.97782296	     -1.86899974	     -0.04362638	     -0.29308959	     47.67566668	      1.58950608	      2.10584041	    -18.42449393	    -14.05509752	    -11.94564021	     11.47358758	     -0.73375054	      1.17838818	      9.62204206	    -19.91871316	     20.49583549	     29.75054308	    -61.19585252	     14.79840221	     -1.19420211	    -10.11476903
      3.63000000	    -19.05374612	     -2.11862223	      7.84732148	     -1.86075332	     -0.04382540	     -0.29248437	     47.75419948	      2.21628030	      2.17401148	    -19.98499090	    -13.61718861	    -12.02845249	      5.93211550	     -0.72514128	      0.56268438	      8.67231292	    -21.05521480	     18.92739611	     30.80637262	    -57.47597479	     14.70651188	     -0.78155558	    -10.00435409
      3.63500000	    -19.16868106	     -2.28040688	      7.60429286	     -1.85255528	     -0.04439155	     -0.29175413	     48.17550860	      2.73446435	      2.50817155	    -21.50687182	    -13.28984523	    -12.40242979	      2.32394491	     -0.36748423	      0.20511084	      7.64681496	    -22.20367345	     16.80006085	     31.78664093	    -52.10742941	     14.93381907	     -0.58843078	     -9.71414443
      3.64000000	    -19.29309953	     -2.48464302	      7.47632219	     -1.84442869	     -0.04479806	     -0.29118853	     48.52574815	      3.20456971	      2.78006407	    -22.89572265	    -12.81901101	    -12.80662225	     -0.66992883	      0.08916784	     -0.21151808	      6.74712064	    -23.37992109	     14.19862520	     32.81003393	    -45.23285097	     15.17118057	     -0.37785148	     -9.57328520
      3.64500000	    -19.26730229	     -2.73320837	      7.29497409	     -1.83621077	     -0.04494350	     -0.29048517	     48.62787189	      3.80030445	      3.08941160	    -24.15638835	    -12.11551357	    -13.19882744	     -3.54302961	      0.40983727	     -0.75131008	      5.68232102	    -24.48406989	     11.07158447	     33.96108273	    -36.88867299	     15.25902430	     -0.09820310	     -9.38653565
